<?xml version="1.0" encoding="utf-8"?>
<!-- Generator: Adobe Illustrator 24.0.1, SVG Export Plug-In . SVG Version: 6.00 Build 0)  -->
<svg version="1.1" id="Layer_1" xmlns="http://www.w3.org/2000/svg" xmlns:xlink="http://www.w3.org/1999/xlink" x="0px" y="0px"
	 viewBox="0 0 200 200" style="enable-background:new 0 0 200 200;" xml:space="preserve">
<style type="text/css">
	.st0{fill:#474646;}
	.st1{fill:none;stroke:#474646;stroke-width:5.6693;stroke-miterlimit:10;}
</style>
<path class="st0" d="M100.2,132.2c-53.2,0-94.8,6.1-94.8,13.5c0,8.4,37.1,15.8,86.1,16.6v10l24.5-14.8l-24.5-13.9v9.1
	c-40.5-0.3-72.2-3.1-72.2-7.3c0-6.2,36.3-11.2,80.9-11.2s80.9,5,80.9,11.2c0,3.9-26.5,6.5-62,7.1v9.4c43.8-1.6,75.8-8.5,75.8-16.4
	C195,138.4,153.4,132.2,100.2,132.2z"/>
<g>
	<path class="st0" d="M24.6,114.5c2.1,5.4,8.1,8.8,15.8,8.8c9.3,0,15.8-5.8,15.8-14c0-8.1-6.7-14.3-15.8-14.3c-4.5,0-8,0.5-11.1,1.7
		l19.1-22.3H24.3v-6.2h37.9L43.6,89.6h0.1c10.4,0,19,8.7,19,19.7c0,12-9.4,20.4-22.2,20.4c-10.4,0-18.8-5-21.8-13L24.6,114.5z"/>
	<path class="st0" d="M79.9,89.9c0.5-0.7,0.9-1.4,14.4-21.8h8L88.6,88.7c1.6-0.3,3.3-0.5,4.9-0.5c10.6,0,20.1,8.8,20.1,20.2
		c0,12-9.4,21.3-20.9,21.3s-21-9.3-21-21.2C71.7,102.2,75.3,96.8,79.9,89.9z M92.8,123.3c7.9,0,14.5-6.6,14.5-14.5
		s-6.6-14.4-14.5-14.4c-8.2,0-14.2,6.1-14.2,14.4C78.6,117.2,84.8,123.3,92.8,123.3z"/>
	<path class="st0" d="M122.5,98.2c0-7.3,0-10,0.3-12.9c1.2-11.7,8.7-18.5,20.2-18.5s19,6.8,20.2,18.5c0.3,2.8,0.3,5.6,0.3,12.9
		s0,10.1-0.3,13c-1.2,11.7-8.7,18.5-20.2,18.5s-19-6.8-20.2-18.5C122.5,108.3,122.5,105.5,122.5,98.2z M143,123.3
		c7.9,0,13.1-4.7,13.8-12.5c0.3-2.5,0.3-5.4,0.3-12.5s0-9.9-0.3-12.4c-0.7-7.9-5.9-12.5-13.8-12.5s-13.1,4.7-13.8,12.5
		c-0.3,2.5-0.3,5.4-0.3,12.4s0,10,0.3,12.5C129.8,118.6,135,123.3,143,123.3z"/>
</g>
<ellipse class="st1" cx="176.9" cy="51.3" rx="13.8" ry="12.9"/>
</svg>
