<?xml version="1.0" encoding="utf-8"?>
<!-- Generator: Adobe Illustrator 23.0.6, SVG Export Plug-In . SVG Version: 6.00 Build 0)  -->
<svg version="1.1" id="Layer_1" xmlns="http://www.w3.org/2000/svg" xmlns:xlink="http://www.w3.org/1999/xlink" x="0px" y="0px"
	 viewBox="0 0 500 30" style="enable-background:new 0 0 500 30;" xml:space="preserve">
<style type="text/css">
	.st0{fill:#26181E;}
</style>
<g>
	<g>
		<path class="st0" d="M207.94,29.33h23.44v-8.41h-0.42c-0.31,2.34-2.04,7.88-7.65,7.88h-7.26V14.93h3.11c3.69,0,4.3,2.81,4.99,5.76
			h0.42V8.74h-0.42c-1.11,4.61-2.19,5.65-5.61,5.65h-2.49V2.52h6.38c4.22,0,5.76,2.11,7.07,6.11h0.42V1.98h-21.98v0.54h4.26V28.8
			h-4.26L207.94,29.33L207.94,29.33z M188.31,2.52c0.65-0.08,1.69-0.11,2.61-0.11c2.69,0,5.73,0.65,5.73,6.03
			c0,4.73-1.96,5.96-4.8,5.96h-3.53L188.31,2.52L188.31,2.52z M180.2,29.33h12.37v-0.54h-4.26V14.93h3.84
			c1.77,0,5.07,0.11,5.46,5.26l0.27,3.49c0.31,3.88,1.38,5.92,5.5,5.92c2.15,0,2.84-0.58,3.38-1l-0.34-0.42
			c-0.58,0.54-1.34,0.81-2,0.81c-1.5,0-2.04-1.27-2.34-2.61c-0.38-1.77-0.23-5.38-0.81-7.38c-1-3.49-5.5-4.22-7.15-4.46v-0.08
			c5.96-0.77,6.76-4.61,6.76-6.11c0-1.53-0.69-3.42-2.46-4.8c-2-1.58-4.22-1.69-7.22-1.69c-0.62,0-1.23,0.04-1.84,0.04
			c-0.62,0.04-1.23,0.08-1.84,0.08h-7.3v0.54h4.26v26.28h-4.26v0.54C180.22,29.33,180.2,29.33,180.2,29.33z M154.12,15.62
			c0-7.07,1.46-13.79,8.95-13.79c7.49,0,8.95,6.72,8.95,13.79c0,9.22-2.34,13.76-8.95,13.76S154.12,24.84,154.12,15.62 M149.7,15.62
			c0,7.41,5.65,14.29,13.37,14.29c7.49,0,13.37-7.11,13.37-14.29c0-8.18-6.61-14.33-13.37-14.33C156.77,1.29,149.7,7.43,149.7,15.62
			 M125.03,28.8V2.52c0.96-0.04,2-0.11,3.26-0.11c8.61,0,11.41,5.3,11.41,13.41c0,3.42-0.54,6.22-2.19,8.99
			c-2.15,3.61-5.57,4.15-9.07,4.15C127.07,28.95,125.91,28.87,125.03,28.8 M116.92,29.33h6.53c0.77,0,1.62,0.04,2.49,0.08
			c0.88,0.04,1.77,0.08,2.54,0.08c3.61,0,5.22-0.11,7.72-1.19c4.42-1.88,7.91-5.92,7.91-12.64c0-5.8-2.73-10.87-8.99-12.91
			c-2.11-0.69-3.65-0.88-6.76-0.88c-0.69,0-1.42,0.04-2.15,0.04c-0.73,0.04-1.42,0.08-2.15,0.08h-7.15v0.54h4.26v26.28h-4.26
			L116.92,29.33C116.93,29.33,116.92,29.33,116.92,29.33z M90.84,15.62c0-7.07,1.46-13.79,8.95-13.79c7.49,0,8.95,6.72,8.95,13.79
			c0,9.22-2.34,13.76-8.95,13.76S90.84,24.84,90.84,15.62 M86.42,15.62c0,7.41,5.65,14.29,13.37,14.29
			c7.49,0,13.37-7.11,13.37-14.29c0-8.18-6.61-14.33-13.37-14.33C93.49,1.29,86.42,7.43,86.42,15.62 M57.91,29.33h23.44v-8.41h-0.42
			c-0.31,2.34-2.04,7.88-7.65,7.88h-7.26V14.93h3.11c3.69,0,4.3,2.81,4.99,5.76h0.42V8.74h-0.42c-1.11,4.61-2.19,5.65-5.61,5.65
			h-2.49V2.52h6.38c4.22,0,5.76,2.11,7.07,6.11h0.42V1.98H57.91v0.54h4.26V28.8h-4.26L57.91,29.33L57.91,29.33z M26.6,29.33h12.37
			v-0.54h-4.26V15.62H47.5v13.18h-4.26v0.54h12.37v-0.54h-4.26V2.52h4.26V1.98H43.24v0.54h4.26v12.57H34.71V2.52h4.26V1.98H26.6
			v0.54h4.26V28.8H26.6C26.6,28.8,26.6,29.33,26.6,29.33z M6.12,29.33h12.37v-0.54h-4.26V2.52h2.23c2.04,0,5.34,0.19,7.11,6.49h0.42
			V1.98H0.63v7.03h0.42c1.77-6.3,5.07-6.49,7.11-6.49h2.23V28.8H6.12V29.33z"/>
		<path class="st0" d="M480.56,2.52c0.65-0.08,1.69-0.11,2.61-0.11c2.69,0,5.73,0.65,5.73,6.03c0,4.73-1.96,5.96-4.8,5.96h-3.54
			L480.56,2.52L480.56,2.52z M472.45,29.33h12.37v-0.54h-4.26V14.93h3.84c1.77,0,5.07,0.11,5.45,5.26l0.27,3.49
			c0.31,3.88,1.38,5.92,5.5,5.92c2.15,0,2.84-0.58,3.38-1l-0.34-0.42c-0.57,0.54-1.34,0.81-2,0.81c-1.5,0-2.04-1.27-2.35-2.61
			c-0.38-1.77-0.23-5.38-0.81-7.38c-1-3.49-5.5-4.22-7.15-4.46v-0.08c5.96-0.77,6.76-4.61,6.76-6.11c0-1.53-0.69-3.42-2.46-4.8
			c-2-1.58-4.23-1.69-7.22-1.69c-0.62,0-1.23,0.04-1.84,0.04c-0.62,0.04-1.23,0.08-1.84,0.08h-7.3v0.54h4.26v26.28h-4.26
			L472.45,29.33C472.46,29.33,472.45,29.33,472.45,29.33z M445.4,29.33h23.43v-8.41h-0.42c-0.31,2.34-2.04,7.88-7.65,7.88h-7.26
			V14.93h3.11c3.69,0,4.3,2.81,4.99,5.76h0.42V8.74h-0.42c-1.11,4.61-2.19,5.65-5.61,5.65h-2.5V2.52h6.38
			c4.23,0,5.76,2.11,7.07,6.11h0.42V1.98h-21.98v0.54h4.26V28.8h-4.26L445.4,29.33L445.4,29.33z M422.19,28.8V2.52
			c0.96-0.04,2-0.11,3.26-0.11c8.61,0,11.41,5.3,11.41,13.41c0,3.42-0.54,6.22-2.19,8.99c-2.15,3.61-5.57,4.15-9.07,4.15
			C424.23,28.95,423.08,28.87,422.19,28.8 M414.09,29.33h6.53c0.77,0,1.62,0.04,2.5,0.08c0.88,0.04,1.77,0.08,2.53,0.08
			c3.61,0,5.22-0.11,7.72-1.19c4.42-1.88,7.91-5.92,7.91-12.64c0-5.8-2.73-10.87-8.99-12.91c-2.11-0.69-3.65-0.88-6.76-0.88
			c-0.69,0-1.42,0.04-2.15,0.04c-0.73,0.04-1.42,0.08-2.15,0.08h-7.15v0.54h4.26v26.28h-4.26L414.09,29.33L414.09,29.33z M386,29.33
			h9.1v-0.54h-4.26V4.09h0.08l16.18,25.78h0.77V2.52h4.26V1.98h-9.1v0.54h4.26v20.4h-0.08L394.23,1.98h-8.22v0.54h4.26V28.8h-4.26
			L386,29.33L386,29.33z M364.95,17.58l4.23-11.18l4.23,11.18H364.95z M356.69,29.33h8.26v-0.54h-4.26l4.03-10.68h8.91l4.03,10.68
			h-4.26v0.54h11.83v-0.54h-3.42L371.36,1.28h-0.92l-10.38,27.51h-3.38L356.69,29.33L356.69,29.33z M328.64,29.33h8.03v-0.54h-3.69
			l7.34-12.29l7.49,12.29h-3.69v0.54h11.53v-0.54h-3.19l-9.57-15.64l6.42-10.64H353V1.98h-7.99v0.54h3.69l-6.15,10.1l-6.15-10.1
			h3.69V1.98h-11.45v0.54h3.19l8.18,13.44l-7.69,12.83h-3.69L328.64,29.33C328.64,29.33,328.64,29.33,328.64,29.33z M301.67,29.33
			h23.44v-8.41h-0.42c-0.31,2.34-2.04,7.88-7.65,7.88h-7.26V14.93h3.11c3.69,0,4.3,2.81,4.99,5.76h0.42V8.74h-0.42
			c-1.11,4.61-2.19,5.65-5.61,5.65h-2.49V2.52h6.38c4.23,0,5.76,2.11,7.07,6.11h0.42V1.98h-21.98v0.54h4.26V28.8h-4.26L301.67,29.33
			L301.67,29.33z M275.35,29.33h23.48v-8.41h-0.42c-1.15,4.84-3.61,7.88-8.11,7.88h-6.84V2.52h4.26V1.98h-12.37v0.54h4.26V28.8
			h-4.26L275.35,29.33L275.35,29.33z M253.95,17.58l4.23-11.18l4.23,11.18H253.95z M245.69,29.33h8.26v-0.54h-4.26l4.03-10.68h8.91
			l4.03,10.68h-4.26v0.54h11.83v-0.54h-3.42L260.37,1.29h-0.92L249.08,28.8h-3.38V29.33L245.69,29.33z"/>
	</g>
</g>
</svg>
