<?xml version="1.0" encoding="utf-8"?>
<!-- Generator: Adobe Illustrator 23.0.6, SVG Export Plug-In . SVG Version: 6.00 Build 0)  -->
<svg version="1.1" id="Layer_1" xmlns="http://www.w3.org/2000/svg" xmlns:xlink="http://www.w3.org/1999/xlink" x="0px" y="0px"
	 viewBox="0 0 1046.66 62.73" style="enable-background:new 0 0 1046.66 62.73;" xml:space="preserve">
<style type="text/css">
	.st0{fill:#26181E;}
</style>
<g>
	<g>
		<path class="st0" d="M435.77,60.53h49.04v-17.6h-0.88c-0.64,4.9-4.26,16.48-16,16.48h-15.19V30.39h6.51c7.72,0,9,5.87,10.45,12.06
			h0.88v-25h-0.88c-2.33,9.65-4.58,11.82-11.74,11.82h-5.22V4.42h13.34c8.84,0,12.06,4.42,14.79,12.78h0.88V3.3h-45.98v1.13h8.92
			v54.98h-8.92L435.77,60.53L435.77,60.53z M394.69,4.42c1.37-0.16,3.54-0.24,5.47-0.24c5.63,0,11.98,1.37,11.98,12.62
			c0,9.89-4.1,12.46-10.05,12.46h-7.39V4.42H394.69z M377.73,60.53h25.89V59.4h-8.92V30.39h8.04c3.7,0,10.61,0.24,11.42,11.01
			l0.56,7.31c0.64,8.12,2.89,12.38,11.5,12.38c4.5,0,5.95-1.21,7.08-2.09l-0.72-0.88c-1.21,1.13-2.81,1.69-4.18,1.69
			c-3.13,0-4.26-2.65-4.9-5.46c-0.8-3.7-0.48-11.26-1.69-15.44c-2.09-7.31-11.5-8.84-14.95-9.33v-0.16
			c12.46-1.61,14.15-9.65,14.15-12.78c0-3.21-1.45-7.16-5.14-10.05c-4.18-3.3-8.84-3.54-15.11-3.54c-1.29,0-2.57,0.08-3.86,0.08
			c-1.29,0.08-2.57,0.16-3.86,0.16h-15.27v1.13h8.92V59.4h-8.92v1.13H377.73z M323.15,31.83c0-14.79,3.05-28.86,18.73-28.86
			c15.68,0,18.73,14.07,18.73,28.86c0,19.29-4.9,28.78-18.73,28.78C328.05,60.61,323.15,51.13,323.15,31.83 M313.9,31.83
			c0,15.51,11.82,29.9,27.98,29.9c15.68,0,27.97-14.87,27.97-29.9c0-17.12-13.83-29.99-27.97-29.99
			C328.69,1.85,313.9,14.71,313.9,31.83 M262.29,59.41V4.42c2.01-0.08,4.18-0.24,6.83-0.24c18.01,0,23.88,11.09,23.88,28.06
			c0,7.15-1.13,13.02-4.58,18.81c-4.5,7.55-11.66,8.68-18.97,8.68C266.55,59.73,264.14,59.57,262.29,59.41 M245.33,60.53H259
			c1.61,0,3.38,0.08,5.22,0.16c1.85,0.08,3.7,0.16,5.31,0.16c7.55,0,10.93-0.24,16.16-2.49c9.24-3.94,16.56-12.38,16.56-26.45
			c0-12.14-5.71-22.75-18.81-27.01c-4.42-1.45-7.64-1.85-14.15-1.85c-1.45,0-2.97,0.08-4.5,0.08c-1.53,0.08-2.97,0.16-4.5,0.16
			h-14.95v1.13h8.92V59.4h-8.92v1.13H245.33z M190.75,31.83c0-14.79,3.05-28.86,18.73-28.86c15.68,0,18.73,14.07,18.73,28.86
			c0,19.29-4.9,28.78-18.73,28.78S190.75,51.13,190.75,31.83 M181.5,31.83c0,15.51,11.82,29.9,27.97,29.9
			c15.68,0,27.98-14.87,27.98-29.9c0-17.12-13.83-29.99-27.98-29.99C196.3,1.85,181.5,14.71,181.5,31.83 M121.85,60.53h49.04v-17.6
			h-0.88c-0.64,4.9-4.26,16.48-16,16.48h-15.19V30.39h6.51c7.72,0,9,5.87,10.45,12.06h0.88v-25h-0.88
			c-2.33,9.65-4.58,11.82-11.74,11.82h-5.22V4.42h13.34c8.84,0,12.06,4.42,14.79,12.78h0.88V3.3h-45.98v1.13h8.92v54.98h-8.92
			L121.85,60.53L121.85,60.53z M56.34,60.53h25.89V59.4h-8.92V31.83h26.77V59.4h-8.92v1.13h25.88V59.4h-8.92V4.42h8.92V3.3H91.16
			v1.13h8.92v26.29H73.31V4.42h8.92V3.3H56.34v1.13h8.92v54.98h-8.92V60.53z M13.49,60.53h25.89V59.4h-8.92V4.42h4.66
			c4.26,0,11.17,0.4,14.87,13.58h0.88V3.3H2v14.71h0.88C6.58,4.83,13.49,4.43,17.75,4.43h4.66v54.98h-8.92V60.53z"/>
		<path class="st0" d="M1006.16,4.42c1.37-0.16,3.54-0.24,5.47-0.24c5.63,0,11.98,1.37,11.98,12.62c0,9.89-4.1,12.46-10.05,12.46
			h-7.4L1006.16,4.42L1006.16,4.42z M989.2,60.53h25.89V59.4h-8.92V30.39h8.04c3.7,0,10.61,0.24,11.41,11.01l0.56,7.31
			c0.64,8.12,2.89,12.38,11.5,12.38c4.5,0,5.95-1.21,7.07-2.09l-0.72-0.88c-1.2,1.13-2.81,1.69-4.18,1.69
			c-3.14,0-4.26-2.65-4.91-5.46c-0.8-3.7-0.48-11.26-1.69-15.44c-2.09-7.31-11.5-8.84-14.95-9.33v-0.16
			c12.46-1.61,14.15-9.65,14.15-12.78c0-3.21-1.45-7.16-5.14-10.05c-4.18-3.3-8.84-3.54-15.11-3.54c-1.29,0-2.57,0.08-3.86,0.08
			c-1.29,0.08-2.57,0.16-3.86,0.16h-15.27v1.13h8.92V59.4h-8.92v1.13H989.2z M932.6,60.53h49.03v-17.6h-0.88
			c-0.64,4.9-4.26,16.48-16,16.48h-15.19V30.39h6.51c7.72,0,9,5.87,10.45,12.06h0.88v-25h-0.88c-2.33,9.65-4.58,11.82-11.74,11.82
			h-5.23V4.42h13.35c8.84,0,12.06,4.42,14.79,12.78h0.88V3.3h-45.98v1.13h8.92v54.98h-8.92L932.6,60.53L932.6,60.53z M884.05,59.41
			V4.42c2.01-0.08,4.18-0.24,6.83-0.24c18.01,0,23.88,11.09,23.88,28.06c0,7.15-1.12,13.02-4.58,18.81
			c-4.5,7.55-11.66,8.68-18.97,8.68C888.31,59.73,885.9,59.57,884.05,59.41 M867.09,60.53h13.67c1.61,0,3.38,0.08,5.23,0.16
			s3.7,0.16,5.3,0.16c7.56,0,10.93-0.24,16.16-2.49c9.25-3.94,16.56-12.38,16.56-26.45c0-12.14-5.71-22.75-18.81-27.01
			c-4.42-1.45-7.64-1.85-14.15-1.85c-1.45,0-2.97,0.08-4.5,0.08c-1.53,0.08-2.97,0.16-4.5,0.16H867.1v1.13h8.92V59.4h-8.92
			L867.09,60.53L867.09,60.53z M808.32,60.53h19.05V59.4h-8.92V7.72h0.16l33.85,53.94h1.61V4.42h8.92V3.3h-19.05v1.13h8.92v42.69
			h-0.16L825.53,3.3h-17.2v1.13h8.92v54.98h-8.92v1.12H808.32z M764.27,35.93l8.84-23.39l8.84,23.39H764.27z M746.99,60.53h17.28
			V59.4h-8.92l8.44-22.35h18.65l8.44,22.35h-8.92v1.13h24.76V59.4h-7.16L777.69,1.84h-1.93L754.05,59.4h-7.07L746.99,60.53
			L746.99,60.53z M688.31,60.53h16.8V59.4h-7.72l15.35-25.72l15.67,25.72h-7.72v1.13h24.12V59.4h-6.67l-20.02-32.72l13.43-22.27
			h7.72V3.3h-16.72v1.13h7.72l-12.86,21.14L704.55,4.43h7.72V3.3h-23.96v1.13h6.67l17.12,28.13l-16.08,26.85h-7.72v1.12H688.31z
			 M631.87,60.53h49.04v-17.6h-0.88c-0.64,4.9-4.26,16.48-16,16.48h-15.19V30.39h6.51c7.72,0,9,5.87,10.45,12.06h0.88v-25h-0.88
			c-2.33,9.65-4.58,11.82-11.74,11.82h-5.22V4.42h13.34c8.84,0,12.06,4.42,14.79,12.78h0.88V3.3h-45.98v1.13h8.92v54.98h-8.92
			L631.87,60.53L631.87,60.53z M576.81,60.53h49.12v-17.6h-0.88c-2.41,10.13-7.55,16.48-16.96,16.48h-14.31V4.42h8.92V3.3h-25.89
			v1.13h8.92v54.98h-8.92L576.81,60.53L576.81,60.53z M532.03,35.93l8.84-23.39l8.84,23.39H532.03z M514.75,60.53h17.28V59.4h-8.92
			l8.44-22.35h18.65l8.44,22.35h-8.92v1.13h24.76V59.4h-7.16L545.46,1.85h-1.93l-21.7,57.56h-7.08V60.53L514.75,60.53z"/>
	</g>
</g>
</svg>
