<?xml version="1.0" encoding="utf-8"?>
<!-- Generator: Adobe Illustrator 23.0.6, SVG Export Plug-In . SVG Version: 6.00 Build 0)  -->
<svg version="1.1" id="Layer_1" xmlns="http://www.w3.org/2000/svg" xmlns:xlink="http://www.w3.org/1999/xlink" x="0px" y="0px"
	 viewBox="0 0 56 24" style="enable-background:new 0 0 56 24;" xml:space="preserve">
<style type="text/css">
	.st0{enable-background:new    ;}
	.st1{fill:#636363;}
</style>
<g class="st0">
	<path class="st1" d="M6.99,15.09l-1.65,0.16c2.54-4.05,3.81-6.32,3.81-6.8c0-0.25-0.1-0.38-0.32-0.38c-0.52,0-1.66,1.03-3.41,3.08
		c-1.4,1.64-2.42,2.95-3.05,3.94l-1.77,0.16c2.76-4.34,4.14-6.61,4.14-6.8c0-0.25-0.14-0.38-0.42-0.38c-0.58,0-1.42,0.58-2.53,1.73
		c-0.36,0.38-0.78,0.86-1.26,1.44c-0.22,0.27-0.35,0.41-0.41,0.41c-0.07,0-0.1-0.06-0.1-0.17c0.22-0.33,0.74-0.95,1.56-1.89
		c1.06-1.22,1.99-1.83,2.8-1.83c0.72,0,1.08,0.34,1.08,1.02c0,0.63-0.27,1.42-0.81,2.36c-0.19,0.34-0.44,0.76-0.75,1.27l0.05,0.05
		c1.02-1.22,1.8-2.13,2.34-2.73c1.2-1.31,2.09-1.96,2.67-1.96c0.61,0,0.92,0.4,0.92,1.19c0,0.48-0.15,1.09-0.46,1.81
		c-0.11,0.24-0.39,0.77-0.84,1.59l0.05,0.05l2.31-2.73c1.23-1.27,2.16-1.91,2.8-1.91c0.65,0,0.97,0.45,0.97,1.34
		c0,0.58-0.46,1.5-1.37,2.77c-0.92,1.27-1.37,2.09-1.37,2.47l-0.05,0.12c0,0.32,0.16,0.47,0.49,0.47c0.54,0,1.35-0.58,2.42-1.73
		c0.38-0.4,0.9-0.96,1.56-1.7c0.13-0.14,0.22-0.22,0.28-0.24c0.1,0,0.16,0.04,0.16,0.11s-0.25,0.38-0.75,0.92l-0.81,0.86
		c-1.32,1.41-2.31,2.11-2.95,2.11c-0.75,0-1.13-0.58-1.13-1.73c0-0.67,0.37-1.58,1.1-2.73c0.12-0.19,0.7-1.03,1.75-2.5
		c0-0.15-0.13-0.22-0.38-0.22c-0.64,0-1.83,1.03-3.57,3.08C8.75,12.64,7.74,13.96,6.99,15.09z"/>
	<path class="st1" d="M26.68,7.91l1.72-0.16l-4.79,7.83l0.05,0.05c1.35-0.65,2.82-1.89,4.41-3.73c0.38-0.43,0.59-0.65,0.64-0.65
		l0.12,0.11c-0.06,0.09-0.2,0.27-0.41,0.54c-0.41,0.5-0.65,0.79-0.72,0.87c-1.21,1.31-2.66,2.43-4.36,3.35
		c-2.87,5.04-5.2,7.55-7,7.55c-0.86,0-1.29-0.49-1.29-1.46c0-0.9,0.69-1.91,2.07-3.04c1.06-0.88,2.84-2.06,5.34-3.53l2.36-4.54
		l-0.05-0.05c-0.52,0.71-1.26,1.52-2.23,2.43c-1.23,1.15-2.14,1.73-2.71,1.73c-0.34,0-0.63-0.18-0.87-0.54
		c-0.18-0.31-0.26-0.65-0.26-1.03c0-0.65,0.43-1.61,1.29-2.89c0.86-1.27,1.29-2.06,1.29-2.35c0-0.22-0.14-0.33-0.43-0.33
		c-0.62,0-1.46,0.58-2.52,1.73c-0.38,0.41-0.75,0.85-1.13,1.31c-0.31,0.36-0.49,0.54-0.54,0.54c-0.07,0-0.1-0.06-0.1-0.17
		c0.02-0.05,0.07-0.14,0.16-0.25c0.09-0.11,0.46-0.55,1.13-1.32c1.27-1.43,2.29-2.15,3.06-2.15c0.8,0,1.19,0.48,1.19,1.45
		c0,0.67-0.43,1.66-1.29,2.99c-0.86,1.32-1.29,2.08-1.29,2.26c0,0.28,0.13,0.42,0.38,0.42c0.75,0,1.98-0.94,3.68-2.83
		C25.16,10.29,26.19,8.92,26.68,7.91z M22.22,16.12c-1.83,1.19-3.11,2.07-3.85,2.66c-1.81,1.46-2.72,2.64-2.72,3.55
		c0,0.68,0.27,1.01,0.8,1.01c1.58,0,3.52-2.41,5.82-7.22H22.22z"/>
</g>
<g class="st0">
	<path d="M41.78,5.13c-0.03,0-0.04-0.01-0.04-0.04c0-0.6-0.09-1.18-0.27-1.74c-0.18-0.56-0.45-1.06-0.82-1.49
		c-0.36-0.43-0.83-0.78-1.4-1.03C38.67,0.57,38,0.44,37.24,0.44h-0.38c-0.08,0-0.13,0.03-0.13,0.08v14.55
		c0,0.06,0.04,0.08,0.13,0.08h1.88c0.03,0,0.04,0.01,0.04,0.04s-0.01,0.04-0.04,0.04h-6.61c-0.03,0-0.04-0.01-0.04-0.04
		s0.01-0.04,0.04-0.04h1.88c0.08,0,0.13-0.03,0.13-0.08V0.53c0-0.06-0.04-0.08-0.13-0.08h-0.38c-0.78,0-1.45,0.13-2.01,0.38
		c-0.56,0.25-1.01,0.6-1.37,1.03c-0.36,0.43-0.62,0.93-0.79,1.49c-0.17,0.56-0.26,1.14-0.26,1.74c0,0.03-0.01,0.04-0.04,0.04
		s-0.04-0.01-0.04-0.04V0.42c0-0.04,0.02-0.06,0.06-0.06h12.59c0.03,0,0.04,0.02,0.04,0.06v4.66C41.82,5.11,41.8,5.13,41.78,5.13z"
		/>
	<path d="M49.12,15.25c-0.03,0-0.04-0.01-0.04-0.04s0.01-0.04,0.04-0.04h2.01c0.07,0,0.11-0.03,0.11-0.08l-1.8-5h-4.87l-1.55,4.2
		c-0.14,0.38-0.22,0.62-0.24,0.72c-0.02,0.1,0,0.16,0.07,0.16h1.92c0.03,0,0.04,0.01,0.04,0.04s-0.01,0.04-0.04,0.04h-3.95
		c-0.03,0-0.04-0.01-0.04-0.04s0.01-0.04,0.04-0.04h1.59c0.1,0,0.17-0.04,0.22-0.14c0.05-0.09,0.15-0.34,0.3-0.75l5.19-14.22
		c0.01-0.03,0.03-0.04,0.04-0.04c0.03,0,0.05,0.01,0.06,0.04l5.79,15.02c0.03,0.06,0.08,0.08,0.17,0.08h1.78
		c0.03,0,0.04,0.01,0.04,0.04s-0.01,0.04-0.04,0.04H49.12z M47,3.36L44.58,10h4.81L47,3.36z"/>
</g>
</svg>
